<svg width="512" height="512" viewBox="0 0 512 512" fill="none" xmlns="http://www.w3.org/2000/svg">
  <rect width="512" height="512" rx="112" fill="#0F172A"/>
  <path d="M197 87C197 74.8497 206.85 65 219 65H293C305.15 65 315 74.8497 315 87V112H197V87Z" fill="#BAE6FD"/>
  <path d="M174 130H338L321.33 378.434C318.685 417.847 285.902 448.5 246.4 448.5H265.6C226.098 448.5 193.315 417.847 190.67 378.434L174 130Z" fill="#38BDF8"/>
  <path d="M199 182C199 169.85 208.85 160 221 160H291C303.15 160 313 169.85 313 182V301C313 336.346 284.346 365 249 365H263C227.654 365 199 336.346 199 301V182Z" fill="#E0F2FE" fill-opacity="0.95"/>
  <path d="M247 211C247 198.85 256.85 189 269 189H321C345.301 189 365 208.699 365 233V286C365 310.301 345.301 330 321 330H275C259.536 330 247 317.464 247 302V211Z" fill="#22D3EE" fill-opacity="0.85"/>
  <path d="M246 233C246 221.954 254.954 213 266 213H308C330.091 213 348 230.909 348 253V268C348 290.091 330.091 308 308 308H266C254.954 308 246 299.046 246 288V233Z" fill="#0EA5E9"/>
  <circle cx="307" cy="260" r="28" fill="#F8FAFC"/>
  <path d="M307 237L312.393 253.607H329L315.303 263.786L320.697 280.393L307 270.214L293.303 280.393L298.697 263.786L285 253.607H301.607L307 237Z" fill="#0EA5E9"/>
</svg>
